<?xml version="1.0" encoding="utf-8"?>
<!-- Generator: Adobe Illustrator 27.0.1, SVG Export Plug-In . SVG Version: 6.00 Build 0)  -->
<svg version="1.1" id="Layer_1" xmlns="http://www.w3.org/2000/svg" xmlns:xlink="http://www.w3.org/1999/xlink" x="0px" y="0px"
	 viewBox="0 0 270 270" style="enable-background:new 0 0 270 270;" xml:space="preserve">
<style type="text/css">
	.st0{clip-path:url(#SVGID_00000151508197729097240700000008103634695071105466_);}
	.st1{clip-path:url(#SVGID_00000163032543118712530880000009786976516850290859_);}
	.st2{display:none;}
	.st3{display:inline;fill:none;}
	.st4{fill:none;}
	.st5{clip-path:url(#SVGID_00000070829941283340435950000000983407797428296614_);}
	.st6{display:none;fill:none;}
	.st7{fill-opacity:0;stroke:#000000;stroke-width:4.352;stroke-miterlimit:4.352;}
	.st8{display:none;fill-opacity:0;stroke:#000000;stroke-width:4.352;stroke-miterlimit:4.352;}
</style>
<g>
	<defs>
		<rect id="SVGID_1_" y="0" width="270" height="270"/>
	</defs>
	<clipPath id="SVGID_00000088105404934255704640000002415095780932427936_">
		<use xlink:href="#SVGID_1_"  style="overflow:visible;"/>
	</clipPath>
	<g style="clip-path:url(#SVGID_00000088105404934255704640000002415095780932427936_);">
		<g>
			<defs>
				<rect id="SVGID_00000047749634279398823290000006765820927325604029_" y="0" width="128" height="128"/>
			</defs>
			<clipPath id="SVGID_00000023971567113964954540000007575857532638528693_">
				<use xlink:href="#SVGID_00000047749634279398823290000006765820927325604029_"  style="overflow:visible;"/>
			</clipPath>
			<g style="clip-path:url(#SVGID_00000023971567113964954540000007575857532638528693_);">
				<g class="st2">
					<g>
						<path class="st3" d="M0,128"/>
					</g>
				</g>
				<g>
					<g class="st2">
						<path class="st3" d="M0,128"/>
					</g>
				</g>
				<g>
					<g class="st2">
						<path class="st3" d="M0,128"/>
					</g>
					<g>
						<path class="st4" d="M0,128"/>
					</g>
					<g>
						<path class="st4" d="M0,128"/>
					</g>
					<g>
						<path class="st4" d="M0,128"/>
					</g>
					<g>
						<path class="st4" d="M0,128"/>
					</g>
					<g>
						<path class="st4" d="M0,128"/>
					</g>
				</g>
				<g>
					<g class="st2">
						<path class="st3" d="M0,128"/>
					</g>
				</g>
				<g>
					<g class="st2">
						<path class="st3" d="M0,128"/>
					</g>
				</g>
				<g>
					<g class="st2">
						<path class="st3" d="M0,128"/>
					</g>
					<g>
						<path class="st4" d="M0,128"/>
					</g>
					<g>
						<path class="st4" d="M0,128"/>
					</g>
					<g>
						<path class="st4" d="M0,128"/>
					</g>
					<g>
						<path class="st4" d="M0,128"/>
					</g>
					<g>
						<path class="st4" d="M0,128"/>
					</g>
				</g>
				<g>
					<g class="st2">
						<path class="st3" d="M0,128"/>
					</g>
				</g>
				<g>
					<g class="st2">
						<path class="st3" d="M0,128"/>
					</g>
				</g>
				<g>
					<g class="st2">
						<path class="st3" d="M0,128"/>
					</g>
					<g>
						<path class="st4" d="M0,128"/>
					</g>
					<g>
						<path class="st4" d="M0,128"/>
					</g>
					<g>
						<path class="st4" d="M0,128"/>
					</g>
					<g>
						<path class="st4" d="M0,128"/>
					</g>
					<g>
						<path class="st4" d="M0,128"/>
					</g>
					<g>
						<path class="st4" d="M0,128"/>
					</g>
					<g>
						<path class="st4" d="M0,128"/>
					</g>
					<g>
						<path class="st4" d="M0,128"/>
					</g>
				</g>
				<g>
					<g class="st2">
						<path class="st3" d="M0,128"/>
					</g>
				</g>
			</g>
		</g>
		<g>
			<defs>
				<rect id="SVGID_00000017480451191200657610000000083092128478035897_" x="70" y="67.9" width="130.6" height="130.6"/>
			</defs>
			<clipPath id="SVGID_00000029046770245811218630000006603430979491336326_">
				<use xlink:href="#SVGID_00000017480451191200657610000000083092128478035897_"  style="overflow:visible;"/>
			</clipPath>
			
				<g transform="matrix(1.0880000591278076,0,0,1.0880000591278076,69.95299530029297,67.9433822631836)" style="clip-path:url(#SVGID_00000029046770245811218630000006603430979491336326_);">
				<g>
					<path class="st6" d="M0,120"/>
					<path class="st4" d="M0,120"/>
				</g>
				<g transform="matrix(1,0,0,1,60,60)">
					<path class="st7" d="M25-4L6-4l5-19c1.2-3.9,2-9-2-9c-2,0-4,0-5,1L-20-5l0,37.1l41,0c4,0,5.2-2.4,6-6l5-22C33-0.7,30.4-4,25-4z
						"/>
				</g>
				<g>
					<path class="st8" d="M0,120"/>
					<path class="st7" d="M0,120"/>
				</g>
				<g transform="matrix(1,0,0,1,60,60)">
					<path class="st7" d="M-20-4l-16,0l0,36l16,0L-20-4z"/>
				</g>
			</g>
		</g>
	</g>
</g>
</svg>
